<?xml version="1.0" encoding="utf-8"?>
<!-- Generator: Adobe Illustrator 19.1.0, SVG Export Plug-In . SVG Version: 6.00 Build 0)  -->
<svg version="1.1" id="Layer_1" xmlns="http://www.w3.org/2000/svg" xmlns:xlink="http://www.w3.org/1999/xlink" x="0px" y="0px"
	 viewBox="-283 406.7 28.2 28.2" style="enable-background:new -283 406.7 28.2 28.2;" xml:space="preserve">
<style type="text/css">
	.st0{fill:#FFFFFF;}
</style>
<path class="st0" d="M-262.4,417.7c-0.1,5.2-3.4,8.8-8.3,9c-2,0.1-3.5-0.6-4.9-1.4c1.4,0.2,3.4-0.3,4.4-1.3
	c-1.4-0.1-2.4-0.9-2.8-2.2c0.5,0.1,0.9,0,1.2,0c-1.4-0.5-2.2-1.2-2.4-3c0.3,0.2,0.8,0.3,1.2,0.3c-1-0.6-1.7-2.7-0.9-4.1
	c1.4,1.6,3.3,3,6.2,3.1c-0.8-3.1,3.5-4.9,5.2-2.7c0.8-0.1,1.4-0.5,1.9-0.6c-0.2,0.8-0.6,1.2-1.2,1.7c0.6-0.1,1.1-0.2,1.6-0.5
	C-261.3,416.9-261.8,417.3-262.4,417.7L-262.4,417.7z"/>
</svg>
