<?xml version="1.0" encoding="utf-8"?>
<!-- Generator: Adobe Illustrator 19.2.1, SVG Export Plug-In . SVG Version: 6.00 Build 0)  -->
<svg version="1.1" id="Layer_1" xmlns="http://www.w3.org/2000/svg" xmlns:xlink="http://www.w3.org/1999/xlink" x="0px" y="0px"
	 viewBox="0 0 364 219" style="enable-background:new 0 0 364 219;" xml:space="preserve">
<style type="text/css">
	.st0{fill:#FFFFFF;}
	.st1{stroke:#FFFFFF;stroke-miterlimit:10;}
	.st2{stroke:#FFFFFF;stroke-width:1.2501;stroke-miterlimit:10;}
</style>
<path d="M282.2,173.7h-241c-4.7,0-8.5-3.8-8.5-8.5V8.5c0-4.7,3.8-8.5,8.5-8.5h241c4.7,0,8.5,3.8,8.5,8.5v156.7
	C290.7,169.9,286.8,173.7,282.2,173.7z"/>
<path class="st0" d="M272.5,136.5H50.9c-4.7,0-8.5-3.8-8.5-8.5V18.3c0-4.7,3.8-8.5,8.5-8.5h221.6c4.7,0,8.5,3.8,8.5,8.5V128
	C281,132.6,277.2,136.5,272.5,136.5z"/>
<path d="M161.7,187.9h28.9c0,0-7.3-5.3-7.3-11.3h-21.6h-21.6c0,6-7.3,11.3-7.3,11.3H161.7z"/>
<g>
	<path class="st1" d="M66.3,219H8.5c-4.7,0-8.5-3.8-8.5-8.5V72c0-4.7,3.8-8.5,8.5-8.5h57.8c4.7,0,8.5,3.8,8.5,8.5v138.5
		C74.8,215.2,71,219,66.3,219z"/>
	<path class="st0" d="M64,196.6H10.8c-2.5,0-4.6-2.1-4.6-4.6V84.4c0-2.5,2.1-4.6,4.6-4.6H64c2.5,0,4.6,2.1,4.6,4.6V192
		C68.6,194.6,66.6,196.6,64,196.6z"/>
	<path class="st0" d="M43.2,74.5h-8.8c-1,0-1.7-0.8-1.7-1.7v0c0-1,0.8-1.7,1.7-1.7h8.8c1,0,1.7,0.8,1.7,1.7v0
		C44.9,73.7,44.1,74.5,43.2,74.5z"/>
	<circle class="st0" cx="37.4" cy="208.3" r="6.1"/>
</g>
<g>
	<path class="st2" d="M355.5,219H218.3c-4.7,0-8.5-3.8-8.5-8.5V109.6c0-4.7,3.8-8.5,8.5-8.5h137.1c4.7,0,8.5,3.8,8.5,8.5v100.9
		C364,215.2,360.1,219,355.5,219z"/>
	<circle class="st0" cx="286.9" cy="207.3" r="6.1"/>
	<path class="st0" d="M353.7,196.1H220.1c-2.5,0-4.6-2.1-4.6-4.6v-80.2c0-2.5,2.1-4.6,4.6-4.6h133.6c2.5,0,4.6,2.1,4.6,4.6v80.2
		C358.3,194,356.3,196.1,353.7,196.1z"/>
</g>
</svg>
